<svg width="175" height="91" viewBox="0 0 175 91" fill="none" xmlns="http://www.w3.org/2000/svg">
<path d="M0.272705 71V1.18182H6.37498V28.625H6.92043C7.60225 27.0568 8.57952 25.4432 9.85225 23.7841C11.1477 22.125 12.8409 20.7386 14.9318 19.625C17.0454 18.4886 19.7045 17.9205 22.9091 17.9205C27.2045 17.9205 30.9772 19.0568 34.2272 21.3295C37.4773 23.5795 40.0113 26.7386 41.8295 30.8068C43.6477 34.8523 44.5568 39.5682 44.5568 44.9545C44.5568 50.3636 43.6477 55.1023 41.8295 59.1705C40.0341 63.2386 37.5113 66.4091 34.2613 68.6818C31.0341 70.9545 27.2841 72.0909 23.0113 72.0909C19.8295 72.0909 17.1704 71.5227 15.0341 70.3864C12.9204 69.25 11.2159 67.8523 9.92043 66.1932C8.62498 64.5114 7.62498 62.875 6.92043 61.2841H6.17043V71H0.272705ZM6.27271 44.8523C6.27271 49.0795 6.8977 52.8295 8.14771 56.1023C9.42043 59.3523 11.2386 61.9091 13.6022 63.7727C15.9886 65.6136 18.875 66.5341 22.2613 66.5341C25.7386 66.5341 28.6818 65.5795 31.0909 63.6705C33.5 61.7386 35.3295 59.1364 36.5795 55.8636C37.8295 52.5909 38.4545 48.9205 38.4545 44.8523C38.4545 40.8295 37.8295 37.2045 36.5795 33.9773C35.3522 30.75 33.5341 28.1932 31.125 26.3068C28.7159 24.3977 25.7613 23.4432 22.2613 23.4432C18.8522 23.4432 15.9545 24.3636 13.5682 26.2045C11.2045 28.0227 9.39771 30.5455 8.14771 33.7727C6.8977 36.9773 6.27271 40.6705 6.27271 44.8523Z" fill="black"/>
<path d="M57.9545 71V18.6364H64.0568V71H57.9545ZM61.0568 9.63636C59.8068 9.63636 58.7386 9.21591 57.8522 8.375C56.9659 7.51137 56.5227 6.47727 56.5227 5.27273C56.5227 4.06818 56.9659 3.04546 57.8522 2.20455C58.7386 1.34091 59.8068 0.909088 61.0568 0.909088C62.3068 0.909088 63.375 1.34091 64.2613 2.20455C65.1477 3.04546 65.5909 4.06818 65.5909 5.27273C65.5909 6.47727 65.1477 7.51137 64.2613 8.375C63.375 9.21591 62.3068 9.63636 61.0568 9.63636Z" fill="black"/>
<path d="M84.3324 90.6364C83.1278 90.6364 82.0028 90.5227 80.9574 90.2955C79.9119 90.0682 79.0824 89.8182 78.4687 89.5455L80.1051 84.1932C82.1733 84.8295 84.0142 85.0568 85.6278 84.875C87.2415 84.7159 88.6733 83.9886 89.9233 82.6932C91.1733 81.4205 92.2869 79.4659 93.2642 76.8295L95.1733 71.5114L75.9119 18.6364H82.4915L98.0369 62.9886H98.5142L114.06 18.6364H120.639L98.4801 79.2841C97.5483 81.8068 96.4005 83.9091 95.0369 85.5909C93.6733 87.2955 92.0937 88.5568 90.2983 89.375C88.5255 90.2159 86.5369 90.6364 84.3324 90.6364Z" fill="black"/>
<path d="M150.989 72.0909C146.466 72.0909 142.466 70.9432 138.989 68.6477C135.534 66.3523 132.83 63.1818 130.875 59.1364C128.92 55.0682 127.943 50.375 127.943 45.0568C127.943 39.6932 128.92 34.9773 130.875 30.9091C132.83 26.8182 135.534 23.6364 138.989 21.3636C142.466 19.0682 146.466 17.9205 150.989 17.9205C155.511 17.9205 159.5 19.0682 162.955 21.3636C166.409 23.6591 169.114 26.8409 171.068 30.9091C173.045 34.9773 174.034 39.6932 174.034 45.0568C174.034 50.375 173.057 55.0682 171.102 59.1364C169.148 63.1818 166.432 66.3523 162.955 68.6477C159.5 70.9432 155.511 72.0909 150.989 72.0909ZM150.989 66.5341C154.625 66.5341 157.705 65.5568 160.227 63.6023C162.75 61.6477 164.659 59.0455 165.955 55.7955C167.273 52.5455 167.932 48.9659 167.932 45.0568C167.932 41.1477 167.273 37.5568 165.955 34.2841C164.659 31.0114 162.75 28.3864 160.227 26.4091C157.705 24.4318 154.625 23.4432 150.989 23.4432C147.375 23.4432 144.295 24.4318 141.75 26.4091C139.227 28.3864 137.307 31.0114 135.989 34.2841C134.693 37.5568 134.045 41.1477 134.045 45.0568C134.045 48.9659 134.693 52.5455 135.989 55.7955C137.307 59.0455 139.227 61.6477 141.75 63.6023C144.273 65.5568 147.352 66.5341 150.989 66.5341Z" fill="black"/>
</svg>
