<svg width="703" height="84" viewBox="0 0 703 84" fill="none" xmlns="http://www.w3.org/2000/svg">
<path d="M702.392 59.2C702.392 60.4266 702.125 61.5733 701.592 62.64C698.019 63.0666 694.792 63.92 691.912 65.2C691.112 65.2 690.419 64.9066 689.832 64.32C689.299 63.7333 689.032 62.8266 689.032 61.6L690.552 50.16L689.752 49.68C687.779 54.48 685.779 58.2133 683.752 60.88C681.725 63.4933 679.059 64.8 675.752 64.8C672.445 64.8 669.672 63.6 667.432 61.2C665.192 58.7466 664.072 55.44 664.072 51.28C664.072 44.4 666.125 38.4 670.232 33.28C674.339 28.16 679.432 25.6 685.512 25.6C687.485 25.6 689.725 26.3733 692.232 27.92C692.339 26.96 692.445 26.1866 692.552 25.6C695.219 24.8 697.752 24.4 700.152 24.4C699.139 28.5066 698.285 32.9333 697.592 37.68C696.952 42.4266 696.312 49.6 695.672 59.2H702.392ZM670.152 49.04C670.152 51.3866 670.685 53.52 671.752 55.44C672.819 57.3066 674.019 58.56 675.352 59.2H679.192C682.285 58.6133 686.045 53.0133 690.472 42.4C690.685 40.16 691.112 36.4266 691.752 31.2H678.952C676.872 31.5733 674.872 33.6533 672.952 37.44C671.085 41.1733 670.152 45.04 670.152 49.04Z" fill="black"/>
<path d="M641.343 31.2C641.343 29.9733 641.61 28.8266 642.143 27.76C645.183 27.3333 648.143 26.48 651.023 25.2C651.77 25.2 652.436 25.5466 653.023 26.24C653.61 26.88 653.903 27.7333 653.903 28.8C652.676 39.2 651.85 49.3333 651.423 59.2H657.823C657.823 60.4266 657.556 61.5733 657.023 62.64C653.45 63.0666 650.223 63.92 647.343 65.2C646.543 65.2 645.85 64.9066 645.263 64.32C644.73 63.7333 644.463 62.8266 644.463 61.6C645.636 54.1333 646.65 44 647.503 31.2H641.343ZM647.663 12.32C647.93 11.52 648.57 10.88 649.583 10.4C650.596 9.86664 651.636 9.59998 652.703 9.59998C653.77 9.59998 654.596 9.83998 655.183 10.32C655.823 10.8 656.143 11.3333 656.143 11.92L655.743 14.8C655.156 16.4 653.45 17.2 650.623 17.2C649.556 17.2 648.73 16.96 648.143 16.48C647.61 16 647.343 15.44 647.343 14.8L647.663 12.32Z" fill="black"/>
<path d="M608.069 31.2C608.069 29.9733 608.336 28.8266 608.869 27.76C611.909 27.3333 614.869 26.48 617.749 25.2C618.496 25.2 619.163 25.5467 619.749 26.24C620.336 26.88 620.629 27.7333 620.629 28.8L619.269 38.4L620.069 38.88C621.403 35.84 623.456 32.88 626.229 30C629.056 27.0667 631.776 25.6 634.389 25.6C635.403 25.6 636.309 25.8133 637.109 26.24C637.963 26.6667 638.549 27.0933 638.869 27.52L639.349 28.16C638.016 30.5067 637.003 33.12 636.309 36L635.909 37.36C634.843 37.84 633.536 38.08 631.989 38.08C632.469 35.8933 632.709 34.5066 632.709 33.92C632.709 32.4266 632.203 31.52 631.189 31.2C630.016 31.2 628.176 32.72 625.669 35.76C623.163 38.7466 621.109 41.9733 619.509 45.44C618.816 53.44 618.149 59.6267 617.509 64C614.896 64.8 612.389 65.2 609.989 65.2C610.843 61.6266 611.589 57.44 612.229 52.64C612.869 47.84 613.429 40.6933 613.909 31.2H608.069Z" fill="black"/>
<path d="M599.886 59.2C599.886 60.4266 599.62 61.5733 599.086 62.64C593.433 64.08 589.38 64.8 586.926 64.8C577.753 64.8 573.166 59.8133 573.166 49.84C573.166 46.16 573.966 42.5066 575.566 38.88C577.166 35.2 579.593 32.08 582.846 29.52C586.153 26.9066 589.886 25.6 594.046 25.6C596.66 25.6 598.58 26.2666 599.806 27.6C601.033 28.9333 601.646 30.56 601.646 32.48C601.646 42.08 594.126 47.04 579.086 47.36C579.086 54.6666 581.273 58.6133 585.646 59.2H599.886ZM596.046 34.48C596.046 32.72 595.3 31.6266 593.806 31.2H586.446C584.686 31.8933 583.166 33.44 581.886 35.84C580.606 38.1866 579.753 40.8533 579.326 43.84C585.46 43.6266 589.78 42.7466 592.286 41.2C594.793 39.6 596.046 37.36 596.046 34.48Z" fill="black"/>
<path d="M551.602 6.79999C551.602 5.57332 551.869 4.42665 552.402 3.35999C555.442 2.93332 558.402 2.07999 561.282 0.799988C562.029 0.799988 562.695 1.14665 563.282 1.83999C563.869 2.47999 564.162 3.33332 564.162 4.39998C563.149 12.9333 561.549 31.2 559.362 59.2H565.602C565.602 60.4267 565.335 61.5733 564.802 62.64C561.229 63.0667 558.002 63.92 555.122 65.2C554.322 65.2 553.629 64.9067 553.042 64.32C552.509 63.7333 552.242 62.8267 552.242 61.6C555.069 37.8667 556.909 19.6 557.762 6.79999H551.602Z" fill="black"/>
<path d="M544.97 59.2C544.97 60.4266 544.703 61.5733 544.17 62.64C540.597 63.0666 537.37 63.92 534.49 65.2C533.69 65.2 532.997 64.9066 532.41 64.32C531.877 63.7333 531.61 62.8266 531.61 61.6L533.13 50.16L532.33 49.68C530.357 54.48 528.357 58.2133 526.33 60.88C524.303 63.4933 521.637 64.8 518.33 64.8C515.023 64.8 512.25 63.6 510.01 61.2C507.77 58.7466 506.65 55.44 506.65 51.28C506.65 44.4 508.703 38.4 512.81 33.28C516.917 28.16 522.01 25.6 528.09 25.6C530.063 25.6 532.303 26.3733 534.81 27.92C534.917 26.96 535.023 26.1866 535.13 25.6C537.797 24.8 540.33 24.4 542.73 24.4C541.717 28.5066 540.863 32.9333 540.17 37.68C539.53 42.4266 538.89 49.6 538.25 59.2H544.97ZM512.73 49.04C512.73 51.3866 513.263 53.52 514.33 55.44C515.397 57.3066 516.597 58.56 517.93 59.2H521.77C524.863 58.6133 528.623 53.0133 533.05 42.4C533.263 40.16 533.69 36.4266 534.33 31.2H521.53C519.45 31.5733 517.45 33.6533 515.53 37.44C513.663 41.1733 512.73 45.04 512.73 49.04Z" fill="black"/>
<path d="M495.668 61.04C487.188 64.08 480.041 65.6 474.228 65.6C468.468 65.6 464.041 63.68 460.948 59.84C457.855 55.9466 456.308 50.9066 456.308 44.72C456.308 37.3066 457.988 30.5066 461.348 24.32C464.975 17.6533 469.961 13.0133 476.308 10.4C479.775 9.01331 483.188 8.31998 486.548 8.31998C489.961 8.31998 493.108 8.85331 495.988 9.91998C498.868 10.9333 500.602 12.0266 501.188 13.2C500.068 15.2266 499.135 17.8666 498.388 21.12L498.068 22.72C496.735 23.2 495.295 23.44 493.748 23.44C494.175 22.2666 494.388 20.9066 494.388 19.36C494.388 16.7466 493.695 14.96 492.308 14H477.108C472.628 16.4 469.161 20.08 466.708 25.04C464.255 29.9466 463.028 34.9066 463.028 39.92C463.028 44.88 464.015 49.12 465.988 52.64C467.961 56.1066 470.761 58.2933 474.388 59.2H489.588C490.601 54.72 491.161 50.2666 491.268 45.84L485.188 44.48C485.188 43.2533 485.455 42.1066 485.988 41.04C489.348 41.4133 492.068 41.6 494.148 41.6L502.548 41.04C502.548 42.2666 502.282 43.4133 501.748 44.48C500.095 44.8 498.548 45.3333 497.108 46.08C496.468 49.6533 495.988 54.64 495.668 61.04Z" fill="black"/>
<path d="M405.179 31.2C405.179 29.9733 405.445 28.8266 405.979 27.76C409.019 27.3333 411.979 26.48 414.859 25.2C415.605 25.2 416.272 25.5467 416.859 26.24C417.445 26.88 417.739 27.7333 417.739 28.8L416.379 38.4L417.179 38.88C418.512 35.84 420.565 32.88 423.339 30C426.165 27.0667 428.885 25.6 431.499 25.6C432.512 25.6 433.419 25.8133 434.219 26.24C435.072 26.6667 435.659 27.0933 435.979 27.52L436.459 28.16C435.125 30.5067 434.112 33.12 433.419 36L433.019 37.36C431.952 37.84 430.645 38.08 429.099 38.08C429.579 35.8933 429.819 34.5066 429.819 33.92C429.819 32.4266 429.312 31.52 428.299 31.2C427.125 31.2 425.285 32.72 422.779 35.76C420.272 38.7466 418.219 41.9733 416.619 45.44C415.925 53.44 415.259 59.6267 414.619 64C412.005 64.8 409.499 65.2 407.099 65.2C407.952 61.6266 408.699 57.44 409.339 52.64C409.979 47.84 410.539 40.6933 411.019 31.2H405.179Z" fill="black"/>
<path d="M396.996 59.2C396.996 60.4266 396.729 61.5733 396.196 62.64C390.542 64.08 386.489 64.8 384.036 64.8C374.862 64.8 370.276 59.8133 370.276 49.84C370.276 46.16 371.076 42.5066 372.676 38.88C374.276 35.2 376.702 32.08 379.956 29.52C383.262 26.9066 386.996 25.6 391.156 25.6C393.769 25.6 395.689 26.2666 396.916 27.6C398.142 28.9333 398.756 30.56 398.756 32.48C398.756 42.08 391.236 47.04 376.196 47.36C376.196 54.6666 378.382 58.6133 382.756 59.2H396.996ZM393.156 34.48C393.156 32.72 392.409 31.6266 390.916 31.2H383.556C381.796 31.8933 380.276 33.44 378.996 35.84C377.716 38.1866 376.862 40.8533 376.436 43.84C382.569 43.6266 386.889 42.7466 389.396 41.2C391.902 39.6 393.156 37.36 393.156 34.48Z" fill="black"/>
<path d="M327.24 6.79999C327.24 5.57332 327.507 4.42665 328.04 3.35999C331.08 2.93332 334.04 2.07999 336.92 0.799988C337.667 0.799988 338.333 1.14665 338.92 1.83999C339.507 2.47999 339.8 3.33332 339.8 4.39998L335.8 40.24L336.6 40.72C338.253 36.9333 340.707 33.4667 343.96 30.32C347.213 27.1733 350.893 25.6 355 25.6C356.973 25.6 358.547 25.8667 359.72 26.4C360.893 26.9333 361.56 27.4667 361.72 28L362.04 28.8C361.613 33.6 359.907 37.7333 356.92 41.2C353.987 44.6667 351.213 46.9333 348.6 48L355.96 59.2H363.8C363.8 60.4267 363.533 61.5733 363 62.64C359.427 63.0667 356.2 63.92 353.32 65.2C352.04 65.2 351.053 64.56 350.36 63.28L341.88 48.8V48C345.987 46.1867 349.187 43.9467 351.48 41.28C353.827 38.6133 355.213 35.2533 355.64 31.2H350.76C348.627 31.2 346.093 32.88 343.16 36.24C340.227 39.5467 337.853 43.2 336.04 47.2C335.507 53.8133 334.893 59.4133 334.2 64C331.587 64.8 329.08 65.2 326.68 65.2C327.533 61.6267 328.067 59.0133 328.28 57.36C329.347 49.52 330.947 32.6667 333.08 6.79999H327.24Z" fill="black"/>
<path d="M317.198 59.2C317.198 60.4266 316.931 61.5733 316.398 62.64C310.745 64.08 306.691 64.8 304.238 64.8C299.651 64.8 296.185 63.6266 293.838 61.28C291.545 58.88 290.398 55.4133 290.398 50.88C290.398 46.2933 291.171 42.1866 292.718 38.56C294.318 34.9333 296.745 31.8666 299.998 29.36C303.251 26.8533 306.985 25.6 311.198 25.6C313.225 25.6 315.065 25.9733 316.718 26.72C318.425 27.4666 319.651 28.16 320.398 28.8C319.278 30.7733 318.371 33.1733 317.678 36L317.278 37.36C316.211 37.84 314.905 38.08 313.358 38.08C313.838 35.9466 314.078 34.3466 314.078 33.28C314.078 32.2133 313.678 31.52 312.878 31.2H304.478C302.291 32.0533 300.371 34.08 298.718 37.28C297.118 40.4266 296.318 43.7866 296.318 47.36C296.318 51.52 297.091 54.5066 298.638 56.32C299.971 57.8666 301.198 58.7733 302.318 59.04L302.958 59.2H317.198Z" fill="black"/>
<path d="M282.855 59.2C282.855 60.4266 282.588 61.5733 282.055 62.64C276.402 64.08 272.348 64.8 269.895 64.8C260.722 64.8 256.135 59.8133 256.135 49.84C256.135 46.16 256.935 42.5066 258.535 38.88C260.135 35.2 262.562 32.08 265.815 29.52C269.122 26.9066 272.855 25.6 277.015 25.6C279.628 25.6 281.548 26.2666 282.775 27.6C284.002 28.9333 284.615 30.56 284.615 32.48C284.615 42.08 277.095 47.04 262.055 47.36C262.055 54.6666 264.242 58.6133 268.615 59.2H282.855ZM279.015 34.48C279.015 32.72 278.268 31.6266 276.775 31.2H269.415C267.655 31.8933 266.135 33.44 264.855 35.84C263.575 38.1866 262.722 40.8533 262.295 43.84C268.428 43.6266 272.748 42.7466 275.255 41.2C277.762 39.6 279.015 37.36 279.015 34.48Z" fill="black"/>
<path d="M249.12 59.2C249.12 60.4267 248.853 61.5733 248.32 62.64C244.747 63.0667 241.52 63.92 238.64 65.2C237.84 65.2 237.147 64.9067 236.56 64.32C236.027 63.7333 235.76 62.8267 235.76 61.6L237.28 50.16L236.48 49.68C234.507 54.48 232.507 58.2133 230.48 60.88C228.453 63.4933 225.787 64.8 222.48 64.8C219.173 64.8 216.4 63.6 214.16 61.2C211.92 58.7467 210.8 55.44 210.8 51.28C210.8 44.4 212.853 38.4 216.96 33.28C221.067 28.16 226.16 25.6 232.24 25.6C234.213 25.6 236.533 26.4267 239.2 28.08C240 20.2933 240.533 13.2 240.8 6.79999H234.64C234.64 5.57332 234.907 4.42665 235.44 3.35999C238.48 2.93332 241.44 2.07999 244.32 0.799988C245.067 0.799988 245.733 1.14665 246.32 1.83999C246.907 2.47999 247.2 3.33332 247.2 4.39998C245.44 19.28 243.867 37.5467 242.48 59.2H249.12ZM216.88 49.04C216.88 51.3867 217.413 53.52 218.48 55.44C219.547 57.3067 220.747 58.56 222.08 59.2H225.92C229.173 58.56 233.067 52.6933 237.6 41.6C237.653 41.1733 238.053 37.7067 238.8 31.2H225.68C223.6 31.5733 221.6 33.6533 219.68 37.44C217.813 41.1733 216.88 45.04 216.88 49.04Z" fill="black"/>
<path d="M163.259 31.2C163.259 29.9733 163.526 28.8266 164.059 27.76C167.099 27.3333 170.059 26.48 172.939 25.2C173.686 25.2 174.353 25.5467 174.939 26.24C175.526 26.88 175.819 27.7333 175.819 28.8L174.299 40.24L175.099 40.72C176.753 36.9333 179.206 33.4666 182.459 30.32C185.713 27.1733 189.393 25.6 193.499 25.6C195.473 25.6 197.046 25.8666 198.219 26.4C199.393 26.9333 200.086 27.4667 200.299 28L200.539 28.8C199.313 39.0933 198.486 49.2266 198.059 59.2H204.459C204.459 60.4266 204.193 61.5733 203.659 62.64C200.086 63.0667 196.859 63.92 193.979 65.2C193.179 65.2 192.486 64.9067 191.899 64.32C191.366 63.7333 191.099 62.8266 191.099 61.6C192.273 54.1333 193.286 44 194.139 31.2H189.259C187.126 31.2 184.593 32.88 181.659 36.24C178.726 39.5466 176.353 43.2 174.539 47.2C174.006 53.8133 173.393 59.4133 172.699 64C170.086 64.8 167.579 65.2 165.179 65.2C166.033 61.6266 166.779 57.44 167.419 52.64C168.059 47.84 168.619 40.6933 169.099 31.2H163.259Z" fill="black"/>
<path d="M153.636 59.2C153.636 60.4266 153.37 61.5733 152.836 62.64C147.183 64.08 143.13 64.8 140.676 64.8C131.503 64.8 126.916 59.8133 126.916 49.84C126.916 46.16 127.716 42.5066 129.316 38.88C130.916 35.2 133.343 32.08 136.596 29.52C139.903 26.9066 143.636 25.6 147.796 25.6C150.41 25.6 152.33 26.2666 153.556 27.6C154.783 28.9333 155.396 30.56 155.396 32.48C155.396 42.08 147.876 47.04 132.836 47.36C132.836 54.6666 135.023 58.6133 139.396 59.2H153.636ZM149.796 34.48C149.796 32.72 149.05 31.6266 147.556 31.2H140.196C138.436 31.8933 136.916 33.44 135.636 35.84C134.356 38.1866 133.503 40.8533 133.076 43.84C139.21 43.6266 143.53 42.7466 146.036 41.2C148.543 39.6 149.796 37.36 149.796 34.48Z" fill="black"/>
<path d="M82.0931 81.36C82.0931 80.3466 82.3331 79.2266 82.8131 78H101.053C103.453 76.8266 105.56 73.0666 107.373 66.72C108.546 62.72 109.4 57.2 109.933 50.16L109.133 49.68C107.48 53.4666 105.026 56.9333 101.773 60.08C98.5198 63.2266 94.8398 64.8 90.7331 64.8C88.7598 64.8 87.1864 64.5333 86.0131 64C84.8398 63.4666 84.1731 62.9333 84.0131 62.4L83.6931 61.6C84.9198 50.72 85.7998 40.5866 86.3331 31.2H80.8131C80.8131 29.9733 81.0798 28.8266 81.6131 27.76C84.6531 27.3333 87.6131 26.48 90.4931 25.2C91.2398 25.2 91.9064 25.5466 92.4931 26.24C93.0798 26.88 93.3731 27.7333 93.3731 28.8C92.0398 36.2666 90.9464 46.4 90.0931 59.2H94.9731C97.1598 59.2 99.7464 57.4666 102.733 54C105.72 50.5333 108.066 46.8 109.773 42.8C110.52 35.9733 111.24 30.24 111.933 25.6C114.6 24.8 117.133 24.4 119.533 24.4C118.52 28.5066 117.853 31.7066 117.533 34C117.213 36.24 116.84 39.3066 116.413 43.2C116.04 47.0933 115.72 50.32 115.453 52.88C115.186 55.3866 114.813 58.2133 114.333 61.36C113.853 64.4533 113.32 66.96 112.733 68.88C112.146 70.8533 111.32 72.8533 110.253 74.88C109.186 76.96 107.96 78.56 106.573 79.68C103.373 82.2933 99.1864 83.6 94.0131 83.6C91.8264 83.6 88.5731 83.04 84.2531 81.92L82.0931 81.36Z" fill="black"/>
<path d="M72.23 59.2C72.23 60.4266 71.9633 61.5733 71.43 62.64C65.7767 64.08 61.7233 64.8 59.27 64.8C50.0967 64.8 45.51 59.8133 45.51 49.84C45.51 46.16 46.31 42.5066 47.91 38.88C49.51 35.2 51.9367 32.08 55.19 29.52C58.4967 26.9066 62.23 25.6 66.39 25.6C69.0033 25.6 70.9233 26.2666 72.15 27.6C73.3767 28.9333 73.99 30.56 73.99 32.48C73.99 42.08 66.47 47.04 51.43 47.36C51.43 54.6666 53.6167 58.6133 57.99 59.2H72.23ZM68.39 34.48C68.39 32.72 67.6433 31.6266 66.15 31.2H58.79C57.03 31.8933 55.51 33.44 54.23 35.84C52.95 38.1866 52.0967 40.8533 51.67 43.84C57.8033 43.6266 62.1233 42.7466 64.63 41.2C67.1367 39.6 68.39 37.36 68.39 34.48Z" fill="black"/>
<path d="M4.08002 12.48C4.08002 11.2533 4.34668 10.1066 4.88002 9.03998C9.84002 9.41331 13.1467 9.59998 14.8 9.59998C17.0934 9.59998 19.6534 9.43998 22.48 9.11998L23.68 9.03998C23.68 10.2666 23.4134 11.4133 22.88 12.48C20.2134 12.96 18.1334 13.84 16.64 15.12C15.2 27.3866 14.0534 42.08 13.2 59.2H35.2C36.2134 57.7066 36.9333 55.7866 37.36 53.44L37.52 52.24C39.12 52.56 40.4267 53.28 41.44 54.4C40.32 57.1733 39.6534 60.3733 39.44 64H7.68002L0.0800171 64.56C0.0800171 63.3333 0.346684 62.1867 0.880017 61.12C3.01335 60.48 4.82668 59.52 6.32002 58.24C7.65335 46.6666 8.88002 31.76 10 13.52L4.08002 12.48Z" fill="black"/>
</svg>
